<?xml version="1.0" standalone="no"?>
<!DOCTYPE svg PUBLIC "-//W3C//DTD SVG 20010904//EN"
 "http://www.w3.org/TR/2001/REC-SVG-20010904/DTD/svg10.dtd">
<svg version="1.0" xmlns="http://www.w3.org/2000/svg"
 width="1080.000000pt" height="1080.000000pt" viewBox="0 0 1080.000000 1080.000000"
 preserveAspectRatio="xMidYMid meet">
<metadata>
Created by potrace 1.14, written by Peter Selinger 2001-2017
</metadata>
<g transform="translate(0.000000,1080.000000) scale(0.100000,-0.100000)"
fill="#000000" stroke="none">
<path d="M4952 6677 c-56 -17 -95 -73 -147 -208 -108 -280 -97 -259 -146 -283
-25 -13 -57 -41 -74 -65 l-30 -43 -3 -264 -3 -264 71 0 70 0 0 -97 c0 -144 34
-190 132 -181 87 9 118 59 118 193 l0 85 460 0 460 0 0 -91 c0 -139 35 -189
133 -189 86 0 127 67 127 208 l0 72 65 0 65 0 0 252 c0 235 -1 255 -21 295
-20 42 -59 78 -107 98 -20 8 -38 46 -97 198 -80 205 -107 250 -169 278 -38 17
-71 19 -456 18 -260 -1 -427 -5 -448 -12z m862 -139 c17 -15 44 -74 81 -172
30 -82 54 -151 52 -153 -2 -2 -249 -2 -550 -1 l-545 3 55 150 c36 98 63 158
79 173 l25 22 389 0 389 0 25 -22z m-948 -484 c70 -33 87 -128 34 -187 -36
-41 -78 -52 -125 -32 -74 30 -97 134 -44 192 42 45 81 53 135 27z m1164 1 c68
-35 89 -108 50 -173 -62 -102 -210 -55 -210 67 0 40 5 52 33 78 49 46 79 53
127 28z"/>
<path d="M6500 5215 l0 -75 1128 2 1127 3 3 73 3 72 -1131 0 -1130 0 0 -75z"/>
<path d="M2040 5205 l0 -75 1130 0 1130 0 0 75 0 75 -1130 0 -1130 0 0 -75z"/>
<path d="M4476 4678 c-3 -18 -12 -96 -21 -173 -9 -77 -23 -189 -31 -250 -20
-154 -21 -147 23 -143 l37 3 22 180 c12 99 28 225 34 280 6 55 14 108 16 118
5 14 -1 17 -35 17 -38 0 -40 -2 -45 -32z"/>
<path d="M5655 4698 c-4 -12 -48 -374 -61 -498 -3 -30 -8 -63 -10 -72 -5 -15
1 -18 35 -18 23 0 41 4 41 8 0 57 34 232 51 258 45 73 118 106 150 68 13 -16
11 -46 -17 -281 l-7 -53 40 0 39 0 18 158 c17 147 17 160 1 199 -30 75 -117
83 -195 16 l-41 -36 5 34 c7 42 26 199 26 216 0 17 -69 17 -75 1z"/>
<path d="M2053 4683 c-60 -21 -137 -94 -170 -161 -23 -47 -28 -72 -31 -152 -4
-89 -2 -98 25 -150 18 -34 45 -66 72 -85 39 -27 50 -30 124 -30 87 0 124 12
182 59 l30 25 -22 22 -22 22 -41 -28 c-59 -41 -141 -46 -189 -13 -59 39 -76
80 -76 178 0 75 4 91 30 139 62 113 165 148 273 94 l53 -27 21 22 c21 20 21
22 4 41 -51 56 -172 77 -263 44z"/>
<path d="M3110 4697 c0 -8 -37 -310 -55 -445 -8 -63 -15 -120 -15 -128 0 -11
26 -14 141 -14 129 0 144 2 194 25 98 47 161 148 172 274 10 124 -32 213 -125
258 -48 23 -69 27 -183 31 -71 3 -129 2 -129 -1z m277 -93 c66 -49 88 -121 72
-229 -22 -136 -106 -205 -251 -205 -62 0 -78 3 -78 15 0 24 51 419 56 434 7
22 167 10 201 -15z"/>
<path d="M6082 4688 c-7 -7 -12 -24 -12 -38 0 -14 5 -31 12 -38 7 -7 24 -12
38 -12 14 0 31 5 38 12 7 7 12 24 12 38 0 14 -5 31 -12 38 -7 7 -24 12 -38 12
-14 0 -31 -5 -38 -12z"/>
<path d="M6706 4679 c-2 -13 -12 -89 -21 -169 -9 -80 -23 -194 -31 -253 -20
-154 -21 -147 26 -147 22 0 40 3 40 8 0 20 21 190 25 210 5 20 11 23 42 20 36
-3 38 -6 93 -111 31 -59 61 -112 67 -118 6 -6 29 -9 51 -7 l42 3 -68 125 -68
125 36 16 c98 44 139 177 78 254 -33 42 -82 57 -200 63 -107 5 -107 5 -112
-19z m215 -64 c49 -26 60 -91 25 -148 -18 -31 -81 -57 -136 -57 -58 0 -58 -2
-38 138 l11 82 54 0 c30 0 67 -7 84 -15z"/>
<path d="M7912 4688 c-7 -7 -12 -24 -12 -38 0 -14 5 -31 12 -38 7 -7 24 -12
38 -12 14 0 31 5 38 12 7 7 12 24 12 38 0 14 -5 31 -12 38 -7 7 -24 12 -38 12
-14 0 -31 -5 -38 -12z"/>
<path d="M2530 4521 c-124 -38 -209 -165 -198 -298 6 -66 32 -105 80 -117 52
-13 88 0 135 49 l42 44 -2 -42 c-2 -41 -1 -42 31 -45 25 -3 32 1 32 15 1 10
11 99 24 198 13 99 22 182 21 183 -7 8 -81 21 -110 21 -16 0 -41 -4 -55 -8z
m82 -56 c10 -10 -20 -162 -40 -201 -64 -125 -162 -126 -162 -1 0 106 82 205
171 207 14 0 28 -2 31 -5z"/>
<path d="M2942 4512 c-17 -9 -43 -33 -58 -52 l-26 -35 2 35 c3 56 1 60 -29 60
-28 0 -29 -1 -40 -77 -6 -43 -15 -121 -21 -173 -6 -52 -13 -110 -16 -127 -6
-33 -6 -33 34 -33 l39 0 7 63 c21 196 62 277 142 277 28 0 33 4 39 31 4 17 5
32 3 33 -15 14 -49 13 -76 -2z"/>
<path d="M3747 4515 c-86 -30 -139 -112 -144 -224 -7 -130 40 -186 155 -186
68 1 96 12 149 59 21 18 22 21 7 37 -15 17 -19 16 -74 -13 -94 -49 -152 -26
-167 66 -5 34 -4 36 21 36 15 0 59 7 97 16 115 26 165 87 133 162 -23 56 -98
76 -177 47z m108 -65 c18 -20 18 -21 -1 -47 -21 -28 -62 -46 -133 -58 l-42 -7
16 38 c9 21 23 47 33 57 36 40 99 48 127 17z"/>
<path d="M4182 4521 c-72 -19 -144 -86 -177 -165 -22 -52 -21 -167 1 -205 42
-71 132 -68 201 7 l35 37 -2 -30 c-3 -51 -1 -55 29 -55 33 0 36 7 45 85 3 28
13 108 22 178 10 77 13 132 7 138 -13 13 -122 20 -161 10z m82 -108 c-7 -77
-39 -162 -75 -207 -24 -28 -38 -36 -64 -36 -40 0 -55 17 -62 69 -15 108 77
230 175 231 l32 0 -6 -57z"/>
<path d="M4745 4520 c-85 -27 -147 -122 -153 -235 -5 -116 40 -174 142 -183
61 -5 124 19 164 61 22 23 22 24 4 40 -17 15 -20 15 -53 -7 -44 -30 -96 -41
-131 -27 -31 12 -47 36 -50 81 l-3 32 87 18 c49 10 104 28 123 40 64 39 69
127 10 166 -30 20 -99 27 -140 14z m99 -66 c44 -43 -5 -83 -131 -109 -28 -6
-33 -4 -33 13 0 27 41 84 70 99 34 17 75 16 94 -3z"/>
<path d="M5180 4519 c-14 -5 -40 -26 -57 -47 l-33 -37 0 43 c0 40 -2 42 -29
42 -34 0 -33 4 -56 -200 -9 -74 -18 -152 -22 -172 l-6 -38 40 0 39 0 12 101
c19 160 64 239 137 239 28 0 33 4 39 32 3 17 5 32 4 33 -12 10 -47 12 -68 4z"/>
<path d="M5355 4511 c-64 -29 -94 -91 -74 -151 9 -26 25 -38 85 -66 41 -20 74
-42 77 -52 5 -23 -18 -68 -38 -76 -29 -11 -81 -6 -101 9 -27 20 -51 18 -64 -6
-9 -17 -8 -23 7 -35 69 -55 178 -43 236 25 21 25 27 43 27 80 0 57 -18 78
-102 115 -32 14 -59 31 -59 38 -6 67 61 99 133 62 27 -14 32 -14 46 -1 21 21
8 45 -33 62 -46 20 -91 18 -140 -4z"/>
<path d="M6411 4515 c-18 -8 -49 -32 -68 -53 l-35 -37 4 45 c3 44 2 45 -29 48
-22 2 -33 -1 -33 -10 0 -7 -14 -119 -30 -248 -38 -302 -38 -300 -1 -300 17 0
32 4 35 9 3 4 10 41 17 82 6 41 12 75 14 77 1 1 15 -4 31 -13 41 -21 93 -18
139 8 127 72 171 337 64 392 -35 19 -64 18 -108 0z m75 -80 c22 -34 14 -135
-15 -193 -22 -43 -71 -82 -104 -82 -10 0 -32 7 -49 16 -30 16 -30 17 -24 72
13 113 80 212 143 212 24 0 37 -7 49 -25z"/>
<path d="M7235 4524 c-45 -11 -99 -60 -129 -118 -40 -77 -44 -180 -8 -237 27
-45 75 -69 134 -69 70 1 175 61 162 93 -10 26 -30 26 -67 0 -19 -13 -53 -27
-75 -30 -36 -5 -45 -2 -72 25 -22 22 -30 40 -30 65 0 33 1 34 48 40 137 17
212 65 212 134 0 56 -40 92 -106 97 -27 3 -58 2 -69 0z m90 -67 c28 -21 13
-65 -29 -82 -45 -19 -127 -37 -135 -30 -10 11 42 96 68 110 33 18 72 19 96 2z"/>
<path d="M8180 4514 c-87 -38 -142 -129 -143 -239 -1 -113 43 -166 143 -173
46 -3 64 1 109 25 67 35 84 58 57 78 -16 12 -23 11 -59 -13 -81 -54 -163 -29
-174 54 l-5 39 76 12 c129 21 186 62 186 136 0 79 -98 121 -190 81z m108 -56
c23 -23 14 -57 -20 -78 -33 -20 -135 -46 -144 -37 -11 10 25 74 55 100 35 29
88 36 109 15z"/>
<path d="M6066 4493 c-3 -16 -13 -86 -21 -158 -8 -71 -18 -151 -21 -177 l-7
-48 40 0 39 0 22 188 c28 239 29 222 -12 222 -29 0 -35 -4 -40 -27z"/>
<path d="M7462 4503 c3 -10 27 -103 53 -206 l49 -188 35 3 c35 3 36 5 132 193
54 105 98 196 98 203 1 7 -12 12 -34 12 l-36 0 -69 -146 c-39 -81 -70 -151
-70 -156 0 -24 -18 6 -23 39 -4 20 -18 88 -33 150 l-26 113 -40 0 c-33 0 -40
-3 -36 -17z"/>
<path d="M7896 4498 c-2 -13 -12 -86 -21 -163 -9 -77 -18 -159 -22 -182 l-5
-43 39 0 39 0 22 193 c13 105 22 198 22 205 0 7 -14 12 -35 12 -28 0 -35 -4
-39 -22z"/>
<path d="M8434 4493 c9 -41 66 -367 66 -376 0 -5 17 -7 37 -5 l38 3 57 130
c31 72 59 135 61 140 9 21 16 -4 39 -135 l24 -135 38 0 38 0 83 200 84 200
-31 3 c-17 2 -34 0 -38 -5 -5 -4 -35 -75 -67 -156 l-59 -148 -23 133 c-32 189
-28 178 -65 178 -33 0 -33 -1 -96 -150 -34 -83 -64 -149 -66 -147 -4 4 -44
263 -44 285 0 7 -15 12 -41 12 -39 0 -40 -1 -35 -27z"/>
</g>
</svg>
